<svg xmlns="http://www.w3.org/2000/svg" xmlns:xlink="http://www.w3.org/1999/xlink" width="466" zoomAndPan="magnify" viewBox="0 0 349.5 119.249998" height="159" preserveAspectRatio="xMidYMid meet" version="1.0"><defs><g/><clipPath id="5241a1a712"><path d="M 95.289062 1.675781 L 141.496094 1.675781 L 141.496094 65.773438 L 95.289062 65.773438 Z M 95.289062 1.675781 " clip-rule="nonzero"/></clipPath><clipPath id="05a4797cc8"><path d="M 127 0.703125 L 166 0.703125 L 166 41 L 127 41 Z M 127 0.703125 " clip-rule="nonzero"/></clipPath><clipPath id="fc53d613c3"><rect x="0" width="312" y="0" height="59"/></clipPath><clipPath id="cb024bf48b"><path d="M 3 0.742188 L 17 0.742188 L 17 20 L 3 20 Z M 3 0.742188 " clip-rule="nonzero"/></clipPath><clipPath id="476273155b"><path d="M 21 0.742188 L 40 0.742188 L 40 20 L 21 20 Z M 21 0.742188 " clip-rule="nonzero"/></clipPath><clipPath id="0fb4adbd1a"><path d="M 45 0.742188 L 67 0.742188 L 67 20 L 45 20 Z M 45 0.742188 " clip-rule="nonzero"/></clipPath><clipPath id="a274e6f90f"><path d="M 73 0.742188 L 78 0.742188 L 78 20 L 73 20 Z M 73 0.742188 " clip-rule="nonzero"/></clipPath><clipPath id="5ddab2b185"><path d="M 86 0.742188 L 98 0.742188 L 98 20 L 86 20 Z M 86 0.742188 " clip-rule="nonzero"/></clipPath><clipPath id="c9f5e16788"><path d="M 104 0.742188 L 120.8125 0.742188 L 120.8125 20 L 104 20 Z M 104 0.742188 " clip-rule="nonzero"/></clipPath><clipPath id="0e18c5f05d"><rect x="0" width="121" y="0" height="25"/></clipPath></defs><path fill="#3871c1" d="M 113.46875 20.535156 C 113.46875 20.535156 113.21875 20.851562 112.753906 21.441406 C 112.523438 21.738281 112.238281 22.101562 111.902344 22.535156 C 111.738281 22.75 111.5625 22.984375 111.375 23.230469 C 111.183594 23.480469 110.988281 23.746094 110.78125 24.023438 C 109.957031 25.148438 108.976562 26.527344 107.949219 28.152344 C 107.882812 28.253906 107.820312 28.359375 107.753906 28.460938 L 107.707031 28.539062 C 107.707031 28.542969 107.691406 28.5625 107.703125 28.546875 L 107.664062 28.609375 C 107.632812 28.664062 107.601562 28.714844 107.566406 28.769531 C 107.4375 28.984375 107.300781 29.203125 107.171875 29.421875 C 107.050781 29.636719 106.925781 29.859375 106.800781 30.078125 C 106.675781 30.300781 106.554688 30.539062 106.433594 30.769531 C 105.945312 31.710938 105.480469 32.714844 105.070312 33.78125 C 104.660156 34.847656 104.304688 35.980469 104.046875 37.15625 C 103.789062 38.335938 103.628906 39.5625 103.617188 40.8125 C 103.617188 40.964844 103.617188 41.121094 103.617188 41.277344 C 103.621094 41.355469 103.617188 41.433594 103.621094 41.511719 C 103.625 41.589844 103.628906 41.667969 103.636719 41.746094 C 103.644531 41.902344 103.652344 42.058594 103.664062 42.21875 L 103.667969 42.335938 C 103.667969 42.292969 103.671875 42.34375 103.671875 42.34375 L 103.671875 42.375 L 103.679688 42.441406 C 103.6875 42.527344 103.695312 42.613281 103.707031 42.703125 C 103.726562 42.855469 103.742188 42.984375 103.769531 43.140625 C 103.792969 43.289062 103.816406 43.445312 103.851562 43.59375 C 103.90625 43.898438 103.980469 44.203125 104.066406 44.5 C 104.148438 44.804688 104.25 45.097656 104.359375 45.394531 C 104.472656 45.6875 104.589844 45.980469 104.726562 46.265625 C 104.863281 46.550781 105.007812 46.835938 105.171875 47.113281 C 105.210938 47.183594 105.25 47.253906 105.292969 47.320312 L 105.355469 47.421875 L 105.386719 47.476562 C 105.410156 47.515625 105.371094 47.449219 105.382812 47.464844 L 105.402344 47.496094 C 105.5 47.652344 105.605469 47.808594 105.707031 47.964844 C 105.792969 48.089844 105.882812 48.210938 105.972656 48.332031 C 106.011719 48.390625 106.070312 48.457031 106.117188 48.523438 L 106.269531 48.714844 C 106.367188 48.84375 106.484375 48.964844 106.589844 49.089844 C 106.695312 49.21875 106.808594 49.339844 106.921875 49.460938 C 107.375 49.941406 107.871094 50.398438 108.402344 50.820312 C 108.929688 51.246094 109.496094 51.636719 110.089844 51.988281 C 110.683594 52.34375 111.304688 52.664062 111.945312 52.945312 L 112.1875 53.050781 L 112.300781 53.097656 L 112.4375 53.152344 L 112.675781 53.246094 L 112.917969 53.339844 C 113.246094 53.457031 113.582031 53.566406 113.914062 53.664062 C 114.082031 53.714844 114.25 53.761719 114.421875 53.804688 L 114.675781 53.867188 L 114.738281 53.878906 L 114.769531 53.886719 C 114.828125 53.902344 114.730469 53.878906 114.753906 53.882812 L 114.898438 53.914062 L 115.484375 54.035156 L 115.558594 54.046875 L 115.617188 54.058594 L 115.738281 54.074219 L 115.976562 54.109375 L 116.214844 54.148438 L 116.476562 54.171875 C 116.648438 54.1875 116.820312 54.214844 116.996094 54.222656 L 117.515625 54.25 L 117.644531 54.257812 L 118.035156 54.257812 C 118.382812 54.269531 118.730469 54.238281 119.078125 54.226562 C 119.421875 54.1875 119.769531 54.167969 120.109375 54.105469 L 120.363281 54.066406 C 120.40625 54.0625 120.449219 54.058594 120.492188 54.046875 L 120.617188 54.023438 L 121.125 53.917969 C 121.292969 53.878906 121.457031 53.832031 121.625 53.792969 C 121.707031 53.769531 121.792969 53.75 121.875 53.726562 L 122.117188 53.648438 L 122.363281 53.570312 C 122.445312 53.542969 122.527344 53.519531 122.605469 53.484375 L 123.085938 53.304688 C 123.167969 53.277344 123.242188 53.238281 123.320312 53.203125 L 123.554688 53.101562 L 123.789062 52.996094 C 123.863281 52.960938 123.9375 52.917969 124.015625 52.882812 C 124.164062 52.804688 124.316406 52.726562 124.464844 52.648438 L 124.902344 52.386719 C 125.050781 52.304688 125.1875 52.207031 125.328125 52.113281 L 125.539062 51.972656 L 125.59375 51.9375 L 125.617188 51.921875 C 125.664062 51.886719 125.585938 51.949219 125.605469 51.933594 L 125.722656 51.84375 L 125.960938 51.664062 L 126.078125 51.574219 L 126.140625 51.53125 L 126.183594 51.492188 C 126.296875 51.394531 126.414062 51.296875 126.53125 51.199219 L 126.894531 50.863281 C 126.957031 50.808594 127.011719 50.75 127.070312 50.691406 L 127.242188 50.515625 C 127.699219 50.039062 128.101562 49.527344 128.453125 48.980469 C 128.808594 48.4375 129.109375 47.863281 129.347656 47.261719 C 129.589844 46.660156 129.78125 46.039062 129.917969 45.402344 C 129.949219 45.242188 129.980469 45.082031 130.011719 44.921875 C 130.035156 44.761719 130.058594 44.601562 130.085938 44.4375 L 130.09375 44.378906 C 130.09375 44.382812 130.101562 44.324219 130.09375 44.382812 L 130.113281 44.207031 L 130.140625 43.929688 L 130.164062 43.613281 L 130.164062 43.496094 C 130.214844 42.242188 130.019531 40.972656 129.660156 39.730469 C 129.476562 39.105469 129.261719 38.488281 129.015625 37.878906 C 128.769531 37.269531 128.496094 36.671875 128.210938 36.074219 C 127.636719 34.890625 127.011719 33.734375 126.394531 32.609375 C 125.773438 31.484375 125.164062 30.382812 124.601562 29.304688 C 124.320312 28.761719 124.046875 28.230469 123.792969 27.703125 C 123.535156 27.175781 123.292969 26.65625 123.070312 26.140625 C 122.847656 25.625 122.640625 25.117188 122.449219 24.621094 C 122.351562 24.375 122.265625 24.125 122.175781 23.882812 C 122.09375 23.636719 122.007812 23.394531 121.933594 23.15625 C 121.898438 23.035156 121.859375 22.917969 121.824219 22.800781 L 121.796875 22.710938 L 121.789062 22.691406 C 121.789062 22.683594 121.78125 22.660156 121.78125 22.660156 L 121.769531 22.617188 C 121.753906 22.558594 121.734375 22.503906 121.71875 22.445312 C 121.6875 22.332031 121.65625 22.21875 121.625 22.109375 C 121.59375 21.992188 121.5625 21.875 121.53125 21.757812 C 121.410156 21.300781 121.316406 20.863281 121.234375 20.433594 C 121.070312 19.582031 120.96875 18.792969 120.917969 18.082031 C 120.910156 17.902344 120.898438 17.726562 120.890625 17.558594 C 120.878906 17.390625 120.878906 17.226562 120.871094 17.070312 C 120.867188 16.910156 120.871094 16.757812 120.871094 16.609375 C 120.871094 16.535156 120.871094 16.460938 120.871094 16.390625 C 120.875 16.316406 120.878906 16.246094 120.878906 16.179688 C 120.890625 15.625 120.9375 15.160156 120.976562 14.785156 C 121.019531 14.410156 121.0625 14.121094 121.09375 13.929688 C 121.125 13.738281 121.144531 13.640625 121.144531 13.640625 C 121.144531 13.640625 121.148438 13.738281 121.160156 13.933594 C 121.167969 14.128906 121.195312 14.414062 121.226562 14.785156 C 121.246094 14.972656 121.261719 15.179688 121.292969 15.40625 C 121.308594 15.519531 121.324219 15.636719 121.339844 15.761719 C 121.355469 15.886719 121.378906 16.011719 121.398438 16.144531 C 121.484375 16.675781 121.601562 17.28125 121.769531 17.945312 C 121.9375 18.613281 122.152344 19.339844 122.433594 20.109375 C 122.507812 20.300781 122.574219 20.5 122.65625 20.699219 C 122.738281 20.894531 122.816406 21.097656 122.902344 21.296875 C 122.945312 21.398438 122.988281 21.5 123.03125 21.601562 C 123.078125 21.707031 123.128906 21.8125 123.175781 21.921875 C 123.199219 21.976562 123.222656 22.03125 123.246094 22.082031 L 123.265625 22.125 C 123.273438 22.140625 123.269531 22.128906 123.273438 22.136719 L 123.28125 22.15625 L 123.320312 22.234375 C 123.371094 22.339844 123.421875 22.445312 123.472656 22.550781 C 123.886719 23.402344 124.367188 24.292969 124.914062 25.207031 C 125.464844 26.121094 126.074219 27.066406 126.738281 28.050781 C 127.398438 29.03125 128.109375 30.050781 128.84375 31.125 C 129.574219 32.203125 130.332031 33.335938 131.058594 34.570312 C 131.421875 35.1875 131.773438 35.832031 132.105469 36.507812 C 132.441406 37.179688 132.746094 37.890625 133.019531 38.636719 C 133.15625 39.007812 133.28125 39.390625 133.394531 39.78125 C 133.449219 39.976562 133.503906 40.175781 133.550781 40.375 L 133.625 40.675781 L 133.6875 40.984375 C 133.855469 41.800781 133.953125 42.65625 133.964844 43.523438 L 133.96875 43.683594 L 133.964844 43.859375 L 133.960938 44.210938 L 133.945312 44.496094 L 133.9375 44.636719 L 133.9375 44.671875 L 133.921875 44.828125 C 133.902344 45.042969 133.878906 45.253906 133.859375 45.46875 C 133.832031 45.683594 133.796875 45.894531 133.765625 46.109375 C 133.617188 46.964844 133.402344 47.824219 133.101562 48.667969 C 132.800781 49.507812 132.410156 50.332031 131.941406 51.113281 C 131.46875 51.890625 130.917969 52.628906 130.304688 53.3125 L 130.070312 53.566406 C 129.992188 53.648438 129.917969 53.734375 129.832031 53.8125 C 129.667969 53.972656 129.503906 54.128906 129.335938 54.289062 C 129.148438 54.449219 128.964844 54.609375 128.78125 54.769531 L 128.710938 54.828125 L 128.652344 54.875 L 128.535156 54.964844 L 128.300781 55.148438 L 128.183594 55.242188 C 128.183594 55.242188 128.085938 55.316406 128.109375 55.296875 L 128.074219 55.324219 L 128.003906 55.371094 L 127.722656 55.566406 C 127.535156 55.699219 127.351562 55.835938 127.152344 55.949219 L 126.5625 56.308594 C 126.363281 56.417969 126.160156 56.523438 125.957031 56.632812 C 125.855469 56.6875 125.753906 56.742188 125.652344 56.792969 L 125.027344 57.082031 C 124.921875 57.128906 124.820312 57.175781 124.710938 57.21875 L 124.070312 57.46875 C 123.960938 57.511719 123.855469 57.546875 123.746094 57.582031 L 123.089844 57.792969 C 122.980469 57.828125 122.867188 57.855469 122.757812 57.882812 C 122.535156 57.941406 122.316406 58.003906 122.09375 58.054688 C 121.644531 58.148438 121.195312 58.25 120.742188 58.308594 C 120.292969 58.386719 119.835938 58.417969 119.382812 58.460938 C 118.925781 58.480469 118.472656 58.511719 118.015625 58.5 L 117.675781 58.496094 L 117.503906 58.492188 L 117.335938 58.484375 L 116.65625 58.441406 C 116.429688 58.421875 116.207031 58.390625 115.980469 58.367188 L 115.644531 58.328125 L 115.289062 58.269531 L 114.9375 58.210938 L 114.671875 58.164062 L 114.597656 58.148438 L 114.015625 58.019531 L 113.867188 57.988281 C 113.867188 57.988281 113.742188 57.960938 113.777344 57.96875 L 113.734375 57.957031 L 113.65625 57.9375 C 113.546875 57.910156 113.4375 57.878906 113.332031 57.851562 C 113.113281 57.789062 112.898438 57.726562 112.6875 57.660156 C 112.261719 57.527344 111.84375 57.378906 111.429688 57.21875 L 111.121094 57.097656 C 111.023438 57.058594 110.90625 57.007812 110.808594 56.964844 L 110.671875 56.90625 L 110.511719 56.832031 L 110.214844 56.695312 C 108.628906 55.945312 107.140625 55 105.828125 53.867188 C 105.171875 53.296875 104.5625 52.683594 104 52.03125 C 103.859375 51.867188 103.71875 51.707031 103.589844 51.53125 C 103.460938 51.363281 103.324219 51.199219 103.203125 51.019531 L 103.015625 50.757812 C 102.953125 50.671875 102.894531 50.589844 102.832031 50.492188 C 102.710938 50.300781 102.582031 50.105469 102.46875 49.921875 C 102.375 49.761719 102.28125 49.601562 102.1875 49.4375 L 102.171875 49.40625 C 102.167969 49.40625 102.117188 49.316406 102.128906 49.335938 L 102.09375 49.269531 L 102.019531 49.128906 C 101.96875 49.035156 101.917969 48.941406 101.875 48.84375 C 101.683594 48.46875 101.515625 48.082031 101.359375 47.695312 C 101.203125 47.304688 101.066406 46.910156 100.945312 46.515625 C 100.828125 46.117188 100.722656 45.722656 100.640625 45.320312 C 100.554688 44.921875 100.488281 44.519531 100.4375 44.121094 C 100.410156 43.921875 100.394531 43.722656 100.378906 43.523438 C 100.359375 43.328125 100.347656 43.101562 100.339844 42.90625 C 100.335938 42.816406 100.335938 42.730469 100.332031 42.640625 L 100.328125 42.484375 L 100.332031 42.339844 C 100.332031 42.148438 100.335938 41.953125 100.339844 41.765625 C 100.34375 41.667969 100.34375 41.574219 100.347656 41.476562 C 100.347656 41.382812 100.359375 41.289062 100.367188 41.195312 C 100.382812 41.007812 100.394531 40.820312 100.410156 40.632812 C 100.550781 39.140625 100.867188 37.726562 101.289062 36.414062 C 101.710938 35.101562 102.238281 33.890625 102.816406 32.777344 C 103.394531 31.660156 104.023438 30.640625 104.667969 29.714844 C 104.832031 29.484375 104.988281 29.253906 105.15625 29.03125 C 105.324219 28.808594 105.488281 28.589844 105.652344 28.375 C 105.816406 28.164062 105.976562 27.96875 106.132812 27.773438 C 106.171875 27.722656 106.210938 27.675781 106.25 27.625 L 106.320312 27.542969 L 106.378906 27.472656 C 106.460938 27.375 106.542969 27.28125 106.625 27.1875 C 107.269531 26.433594 107.886719 25.746094 108.480469 25.128906 C 109.070312 24.507812 109.625 23.953125 110.136719 23.464844 C 110.394531 23.222656 110.636719 22.992188 110.867188 22.777344 C 111.097656 22.5625 111.320312 22.367188 111.523438 22.183594 C 111.726562 22.003906 111.917969 21.835938 112.09375 21.683594 C 112.269531 21.53125 112.429688 21.394531 112.574219 21.269531 C 112.863281 21.027344 113.085938 20.84375 113.238281 20.71875 C 113.390625 20.597656 113.46875 20.535156 113.46875 20.535156 " fill-opacity="1" fill-rule="nonzero"/><g clip-path="url(#5241a1a712)"><path fill="#00adef" d="M 95.363281 43.207031 C 95.363281 43.207031 95.386719 43.3125 95.425781 43.519531 C 95.460938 43.730469 95.53125 44.035156 95.621094 44.425781 C 95.644531 44.527344 95.671875 44.628906 95.699219 44.738281 C 95.722656 44.847656 95.753906 44.964844 95.789062 45.082031 C 95.820312 45.203125 95.855469 45.328125 95.890625 45.457031 C 95.929688 45.585938 95.972656 45.71875 96.015625 45.859375 C 96.054688 46 96.105469 46.140625 96.15625 46.289062 C 96.203125 46.4375 96.253906 46.589844 96.316406 46.742188 C 96.425781 47.054688 96.554688 47.382812 96.699219 47.722656 C 96.992188 48.402344 97.351562 49.132812 97.792969 49.894531 C 97.898438 50.085938 98.023438 50.277344 98.140625 50.46875 C 98.265625 50.660156 98.390625 50.859375 98.523438 51.050781 C 98.589844 51.148438 98.65625 51.246094 98.726562 51.347656 C 98.796875 51.441406 98.867188 51.535156 98.941406 51.632812 C 99.015625 51.734375 99.089844 51.839844 99.167969 51.945312 C 99.207031 51.996094 99.246094 52.050781 99.285156 52.101562 C 99.324219 52.152344 99.363281 52.199219 99.402344 52.246094 C 99.558594 52.433594 99.710938 52.625 99.878906 52.820312 C 100.046875 53.015625 100.222656 53.210938 100.398438 53.410156 C 100.582031 53.601562 100.769531 53.792969 100.960938 53.992188 C 101.152344 54.183594 101.355469 54.371094 101.554688 54.566406 C 102.375 55.328125 103.292969 56.0625 104.304688 56.746094 C 105.3125 57.429688 106.417969 58.054688 107.601562 58.613281 C 107.898438 58.75 108.195312 58.894531 108.503906 59.019531 C 108.660156 59.085938 108.8125 59.148438 108.964844 59.214844 C 109.121094 59.277344 109.28125 59.335938 109.4375 59.394531 C 109.59375 59.453125 109.753906 59.519531 109.90625 59.574219 C 110.089844 59.640625 110.226562 59.683594 110.390625 59.742188 C 110.714844 59.851562 111.039062 59.953125 111.371094 60.050781 C 112.03125 60.242188 112.703125 60.410156 113.390625 60.546875 L 113.519531 60.570312 L 113.617188 60.589844 C 113.519531 60.570312 113.609375 60.589844 113.597656 60.585938 C 113.691406 60.601562 113.789062 60.617188 113.882812 60.632812 C 114.074219 60.664062 114.265625 60.695312 114.457031 60.730469 C 114.550781 60.746094 114.648438 60.761719 114.746094 60.777344 L 114.996094 60.804688 C 115.164062 60.824219 115.328125 60.84375 115.496094 60.863281 L 115.746094 60.890625 C 115.832031 60.898438 115.925781 60.902344 116.011719 60.910156 C 116.191406 60.921875 116.367188 60.933594 116.546875 60.945312 L 116.816406 60.960938 C 116.90625 60.96875 116.996094 60.964844 117.085938 60.96875 C 117.265625 60.972656 117.445312 60.976562 117.625 60.980469 C 118.34375 60.988281 119.070312 60.953125 119.796875 60.886719 C 121.246094 60.753906 122.699219 60.46875 124.105469 60.019531 C 124.453125 59.902344 124.800781 59.777344 125.152344 59.65625 C 125.320312 59.585938 125.492188 59.511719 125.664062 59.441406 L 125.921875 59.335938 C 126.007812 59.300781 126.09375 59.269531 126.175781 59.226562 C 126.34375 59.144531 126.507812 59.066406 126.675781 58.984375 C 126.84375 58.902344 127.015625 58.832031 127.175781 58.738281 C 127.335938 58.648438 127.5 58.558594 127.660156 58.46875 L 127.90625 58.335938 C 127.988281 58.289062 128.0625 58.238281 128.144531 58.1875 C 128.300781 58.089844 128.457031 57.992188 128.613281 57.894531 C 128.691406 57.84375 128.773438 57.796875 128.851562 57.742188 L 129.078125 57.582031 C 129.230469 57.476562 129.382812 57.367188 129.535156 57.261719 L 129.648438 57.179688 C 129.707031 57.136719 129.601562 57.21875 129.621094 57.199219 L 129.65625 57.175781 L 129.71875 57.125 L 130.226562 56.726562 C 130.308594 56.660156 130.402344 56.585938 130.457031 56.535156 L 130.839844 56.195312 C 130.964844 56.09375 131.097656 55.957031 131.230469 55.828125 L 131.429688 55.636719 C 131.496094 55.574219 131.566406 55.511719 131.625 55.445312 C 132.644531 54.382812 133.527344 53.207031 134.199219 51.90625 C 134.894531 50.625 135.363281 49.21875 135.683594 47.777344 C 135.722656 47.59375 135.75 47.410156 135.785156 47.230469 C 135.820312 47.046875 135.855469 46.863281 135.875 46.679688 L 135.949219 46.125 L 135.960938 46.054688 L 135.964844 46.019531 C 135.964844 46 135.957031 46.09375 135.964844 46.035156 L 135.976562 45.875 L 136.007812 45.554688 L 136.011719 45.472656 L 136.015625 45.433594 C 136.019531 45.417969 136.019531 45.40625 136.019531 45.398438 L 136.023438 45.277344 L 136.035156 45.03125 C 136.039062 44.992188 136.042969 44.953125 136.042969 44.910156 L 136.042969 44.773438 L 136.046875 44.503906 C 136.050781 44.144531 136.035156 43.785156 136.011719 43.421875 C 135.964844 42.699219 135.867188 41.976562 135.71875 41.253906 C 135.578125 40.53125 135.386719 39.808594 135.160156 39.089844 C 134.710938 37.65625 134.113281 36.234375 133.457031 34.839844 C 133.125 34.144531 132.78125 33.453125 132.425781 32.765625 C 132.246094 32.421875 132.066406 32.082031 131.882812 31.742188 C 131.699219 31.402344 131.515625 31.0625 131.332031 30.726562 C 130.578125 29.363281 129.839844 28.027344 129.125 26.730469 C 127.675781 24.105469 126.351562 21.535156 125.320312 19.0625 C 124.804688 17.824219 124.359375 16.613281 123.992188 15.445312 C 123.945312 15.296875 123.898438 15.152344 123.855469 15.007812 C 123.832031 14.933594 123.8125 14.863281 123.789062 14.789062 C 123.792969 14.792969 123.777344 14.757812 123.777344 14.75 L 123.769531 14.722656 L 123.753906 14.671875 L 123.726562 14.566406 C 123.6875 14.429688 123.648438 14.289062 123.609375 14.152344 C 123.589844 14.082031 123.570312 14.015625 123.554688 13.945312 C 123.535156 13.875 123.515625 13.804688 123.496094 13.730469 C 123.460938 13.589844 123.425781 13.445312 123.390625 13.304688 C 123.351562 13.164062 123.316406 13.023438 123.289062 12.886719 C 123.226562 12.613281 123.164062 12.34375 123.109375 12.074219 C 122.667969 9.933594 122.527344 8.035156 122.523438 6.484375 C 122.527344 5.707031 122.550781 5.019531 122.605469 4.421875 C 122.621094 4.273438 122.628906 4.128906 122.644531 3.992188 C 122.660156 3.855469 122.671875 3.722656 122.6875 3.597656 C 122.703125 3.472656 122.71875 3.351562 122.730469 3.238281 C 122.746094 3.125 122.761719 3.015625 122.777344 2.914062 C 122.808594 2.710938 122.832031 2.53125 122.859375 2.378906 C 122.890625 2.226562 122.914062 2.097656 122.933594 1.992188 C 122.972656 1.785156 122.992188 1.675781 122.992188 1.675781 C 122.992188 1.675781 123 1.785156 123.019531 1.996094 C 123.027344 2.101562 123.035156 2.230469 123.046875 2.386719 C 123.058594 2.542969 123.082031 2.722656 123.097656 2.921875 C 123.109375 3.023438 123.117188 3.128906 123.128906 3.242188 C 123.144531 3.355469 123.160156 3.472656 123.175781 3.597656 C 123.1875 3.71875 123.203125 3.847656 123.21875 3.984375 C 123.238281 4.117188 123.261719 4.257812 123.28125 4.402344 C 123.300781 4.546875 123.320312 4.695312 123.347656 4.851562 C 123.375 5.003906 123.402344 5.164062 123.429688 5.332031 C 123.445312 5.410156 123.457031 5.496094 123.472656 5.582031 C 123.488281 5.664062 123.507812 5.75 123.523438 5.835938 C 123.558594 6.011719 123.59375 6.1875 123.628906 6.371094 C 123.945312 7.832031 124.414062 9.574219 125.164062 11.484375 C 125.355469 11.960938 125.554688 12.453125 125.769531 12.9375 C 125.796875 12.996094 125.824219 13.058594 125.851562 13.121094 C 125.878906 13.183594 125.910156 13.25 125.9375 13.316406 C 126 13.445312 126.058594 13.574219 126.117188 13.707031 L 126.164062 13.804688 L 126.183594 13.855469 L 126.195312 13.878906 C 126.199219 13.890625 126.195312 13.871094 126.203125 13.890625 C 126.234375 13.953125 126.265625 14.015625 126.296875 14.082031 C 126.355469 14.210938 126.417969 14.335938 126.480469 14.464844 C 126.988281 15.496094 127.558594 16.5625 128.199219 17.652344 C 129.472656 19.839844 131.003906 22.128906 132.679688 24.574219 C 133.101562 25.191406 133.527344 25.816406 133.957031 26.445312 C 134.390625 27.082031 134.824219 27.730469 135.257812 28.398438 C 135.476562 28.730469 135.695312 29.066406 135.914062 29.410156 C 136.128906 29.75 136.347656 30.097656 136.5625 30.449219 C 136.992188 31.148438 137.421875 31.871094 137.832031 32.621094 C 138.65625 34.113281 139.433594 35.707031 140.066406 37.433594 C 140.382812 38.296875 140.660156 39.191406 140.886719 40.117188 C 141.105469 41.039062 141.273438 41.996094 141.371094 42.972656 L 141.402344 43.335938 C 141.414062 43.460938 141.425781 43.582031 141.429688 43.707031 L 141.449219 44.074219 C 141.453125 44.199219 141.460938 44.320312 141.460938 44.445312 L 141.464844 44.816406 L 141.464844 45.003906 C 141.464844 45.066406 141.460938 45.132812 141.460938 45.199219 L 141.449219 45.597656 L 141.441406 45.796875 C 141.441406 45.816406 141.441406 45.828125 141.441406 45.84375 L 141.4375 45.882812 L 141.433594 45.960938 L 141.410156 46.285156 L 141.402344 46.445312 C 141.40625 46.410156 141.394531 46.535156 141.394531 46.539062 L 141.390625 46.582031 L 141.378906 46.675781 C 141.351562 46.917969 141.324219 47.15625 141.296875 47.398438 C 141.273438 47.640625 141.230469 47.882812 141.191406 48.125 C 141.148438 48.367188 141.113281 48.609375 141.066406 48.847656 L 140.910156 49.570312 C 140.882812 49.691406 140.859375 49.8125 140.828125 49.933594 L 140.730469 50.289062 C 140.664062 50.527344 140.601562 50.769531 140.527344 51.007812 L 140.289062 51.714844 C 140.25 51.832031 140.214844 51.949219 140.167969 52.066406 L 140.03125 52.414062 L 139.890625 52.761719 C 139.84375 52.878906 139.800781 52.996094 139.746094 53.109375 C 139.535156 53.5625 139.339844 54.023438 139.09375 54.460938 L 138.917969 54.792969 L 138.828125 54.957031 C 138.796875 55.011719 138.765625 55.066406 138.730469 55.121094 L 138.34375 55.761719 L 138.246094 55.925781 L 137.925781 56.390625 L 137.714844 56.699219 C 137.679688 56.75 137.644531 56.804688 137.605469 56.855469 L 137.492188 57.003906 L 137.035156 57.601562 C 136.960938 57.699219 136.878906 57.792969 136.796875 57.886719 L 136.550781 58.171875 C 136.234375 58.558594 135.878906 58.90625 135.535156 59.265625 C 135.449219 59.359375 135.355469 59.4375 135.269531 59.523438 L 134.996094 59.777344 C 134.816406 59.949219 134.640625 60.117188 134.433594 60.285156 C 134.234375 60.453125 134.03125 60.621094 133.832031 60.789062 C 133.722656 60.878906 133.644531 60.933594 133.558594 61 L 133.300781 61.195312 L 132.976562 61.4375 L 132.945312 61.460938 C 132.949219 61.457031 132.820312 61.554688 132.855469 61.527344 L 132.703125 61.628906 C 132.5 61.765625 132.296875 61.898438 132.097656 62.035156 L 131.792969 62.238281 C 131.691406 62.304688 131.585938 62.363281 131.480469 62.425781 C 131.269531 62.546875 131.0625 62.671875 130.851562 62.792969 C 130.746094 62.851562 130.644531 62.914062 130.535156 62.972656 L 130.214844 63.136719 C 130 63.246094 129.78125 63.355469 129.566406 63.464844 C 129.355469 63.578125 129.132812 63.664062 128.910156 63.761719 C 128.691406 63.859375 128.472656 63.953125 128.253906 64.046875 C 128.144531 64.097656 128.03125 64.136719 127.917969 64.179688 L 127.582031 64.300781 C 127.359375 64.382812 127.136719 64.464844 126.910156 64.542969 C 126.457031 64.683594 126.007812 64.824219 125.554688 64.953125 C 123.734375 65.4375 121.890625 65.695312 120.082031 65.746094 C 119.175781 65.773438 118.28125 65.75 117.402344 65.679688 C 117.179688 65.660156 116.960938 65.640625 116.742188 65.621094 C 116.632812 65.609375 116.523438 65.601562 116.414062 65.585938 C 116.308594 65.570312 116.199219 65.558594 116.089844 65.542969 C 115.875 65.511719 115.660156 65.476562 115.445312 65.449219 C 115.335938 65.429688 115.230469 65.417969 115.121094 65.398438 C 115.011719 65.375 114.902344 65.355469 114.789062 65.332031 C 114.570312 65.289062 114.351562 65.246094 114.132812 65.203125 C 114.023438 65.179688 113.914062 65.160156 113.804688 65.136719 C 113.710938 65.113281 113.617188 65.089844 113.523438 65.066406 C 113.332031 65.015625 113.148438 64.96875 112.960938 64.917969 C 112.867188 64.894531 112.773438 64.871094 112.679688 64.847656 C 112.644531 64.835938 112.710938 64.851562 112.589844 64.824219 L 112.550781 64.8125 L 112.476562 64.792969 L 112.324219 64.75 C 111.523438 64.511719 110.746094 64.242188 109.992188 63.941406 C 109.617188 63.789062 109.246094 63.632812 108.886719 63.46875 C 108.707031 63.390625 108.503906 63.292969 108.351562 63.21875 C 108.167969 63.132812 107.996094 63.042969 107.820312 62.953125 C 107.648438 62.863281 107.476562 62.777344 107.304688 62.6875 C 107.136719 62.59375 106.964844 62.5 106.800781 62.40625 C 106.460938 62.226562 106.136719 62.023438 105.816406 61.824219 C 105.734375 61.777344 105.65625 61.726562 105.578125 61.679688 C 105.496094 61.628906 105.417969 61.578125 105.339844 61.523438 C 105.1875 61.421875 105.03125 61.320312 104.875 61.21875 C 104.722656 61.117188 104.574219 61.007812 104.425781 60.898438 C 104.277344 60.792969 104.128906 60.6875 103.980469 60.582031 C 103.691406 60.363281 103.410156 60.136719 103.128906 59.917969 C 102.859375 59.691406 102.589844 59.464844 102.328125 59.234375 C 101.285156 58.3125 100.371094 57.339844 99.585938 56.351562 C 99.394531 56.101562 99.203125 55.855469 99.019531 55.609375 C 98.847656 55.359375 98.671875 55.113281 98.503906 54.867188 C 98.34375 54.617188 98.1875 54.367188 98.03125 54.125 C 97.992188 54.066406 97.957031 54 97.921875 53.9375 C 97.886719 53.875 97.847656 53.808594 97.8125 53.746094 C 97.742188 53.621094 97.667969 53.496094 97.597656 53.371094 C 97.566406 53.308594 97.53125 53.246094 97.496094 53.1875 C 97.464844 53.128906 97.4375 53.070312 97.40625 53.011719 C 97.347656 52.894531 97.292969 52.777344 97.234375 52.664062 C 97.171875 52.542969 97.113281 52.421875 97.054688 52.300781 C 97 52.179688 96.945312 52.0625 96.890625 51.941406 C 96.835938 51.824219 96.785156 51.707031 96.738281 51.589844 C 96.6875 51.472656 96.636719 51.359375 96.59375 51.242188 C 96.503906 51.007812 96.410156 50.78125 96.335938 50.554688 C 96.015625 49.65625 95.792969 48.8125 95.644531 48.042969 C 95.566406 47.65625 95.503906 47.292969 95.457031 46.949219 C 95.429688 46.78125 95.417969 46.613281 95.398438 46.449219 C 95.382812 46.289062 95.367188 46.132812 95.355469 45.984375 C 95.304688 45.382812 95.304688 44.875 95.304688 44.460938 C 95.308594 44.046875 95.324219 43.734375 95.339844 43.523438 C 95.355469 43.3125 95.363281 43.207031 95.363281 43.207031 " fill-opacity="1" fill-rule="nonzero"/></g><path fill="#3871c1" d="M 113.144531 26.148438 C 113.144531 26.148438 100.074219 41.175781 113.144531 51.050781 C 113.144531 51.050781 106.445312 40.425781 113.144531 26.148438 " fill-opacity="1" fill-rule="nonzero"/><g transform="matrix(1, 0, 0, 1, 18, 21)"><g clip-path="url(#fc53d613c3)"><g fill="#00afdc" fill-opacity="1"><g transform="translate(1.641833, 39.886326)"><g><path d="M 17.546875 -35.078125 C 15.785156 -35.003906 14.515625 -34.796875 13.734375 -34.453125 C 12.953125 -34.109375 12.503906 -33.59375 12.390625 -32.90625 C 12.304688 -32.488281 12.242188 -32.039062 12.203125 -31.5625 C 12.171875 -31.082031 12.15625 -30.519531 12.15625 -29.875 L 12.15625 -20.125 C 13.375 -20.507812 14.765625 -21.003906 16.328125 -21.609375 C 17.898438 -22.222656 19.394531 -22.945312 20.8125 -23.78125 C 22.226562 -24.625 23.410156 -25.585938 24.359375 -26.671875 C 25.316406 -27.765625 25.796875 -29.003906 25.796875 -30.390625 C 25.796875 -31.335938 25.582031 -32.117188 25.15625 -32.734375 C 24.738281 -33.347656 24.164062 -33.828125 23.4375 -34.171875 C 22.71875 -34.515625 21.847656 -34.75 20.828125 -34.875 C 19.816406 -35.007812 18.722656 -35.078125 17.546875 -35.078125 Z M 23.5 -37.71875 C 26.707031 -37.71875 28.960938 -37.144531 30.265625 -36 C 31.566406 -34.851562 32.21875 -33.285156 32.21875 -31.296875 C 32.21875 -30.035156 31.898438 -28.867188 31.265625 -27.796875 C 30.640625 -26.734375 29.789062 -25.742188 28.71875 -24.828125 C 27.644531 -23.910156 26.421875 -23.066406 25.046875 -22.296875 C 23.671875 -21.535156 22.238281 -20.847656 20.75 -20.234375 C 19.257812 -19.617188 17.769531 -19.070312 16.28125 -18.59375 C 14.789062 -18.125 13.414062 -17.71875 12.15625 -17.375 L 12.15625 -6.875 C 12.15625 -6.039062 12.191406 -5.25 12.265625 -4.5 C 12.347656 -3.75 12.519531 -3.097656 12.78125 -2.546875 C 13.050781 -1.992188 13.429688 -1.535156 13.921875 -1.171875 C 14.421875 -0.804688 15.070312 -0.585938 15.875 -0.515625 L 15.875 0 L 2.125 0 L 2.125 -0.515625 C 2.957031 -0.628906 3.613281 -0.867188 4.09375 -1.234375 C 4.570312 -1.597656 4.945312 -2.035156 5.21875 -2.546875 C 5.488281 -3.066406 5.660156 -3.660156 5.734375 -4.328125 C 5.804688 -4.992188 5.84375 -5.691406 5.84375 -6.421875 L 5.84375 -30.84375 C 5.84375 -31.6875 5.796875 -32.46875 5.703125 -33.1875 C 5.609375 -33.914062 5.4375 -34.566406 5.1875 -35.140625 C 4.9375 -35.710938 4.5625 -36.171875 4.0625 -36.515625 C 3.570312 -36.859375 2.925781 -37.085938 2.125 -37.203125 L 2.125 -37.71875 Z M 23.5 -37.71875 "/></g></g></g><g fill="#00afdc" fill-opacity="1"><g transform="translate(33.747034, 39.886326)"><g><path d="M 19.09375 -35.078125 C 16.914062 -35.078125 15.269531 -34.925781 14.15625 -34.625 C 13.695312 -34.507812 13.332031 -34.351562 13.0625 -34.15625 C 12.800781 -33.96875 12.59375 -33.679688 12.4375 -33.296875 C 12.28125 -32.921875 12.171875 -32.414062 12.109375 -31.78125 C 12.054688 -31.15625 12.03125 -30.328125 12.03125 -29.296875 L 12.03125 -20.46875 C 13.1875 -20.769531 14.566406 -21.226562 16.171875 -21.84375 C 17.773438 -22.457031 19.320312 -23.191406 20.8125 -24.046875 C 22.300781 -24.910156 23.570312 -25.882812 24.625 -26.96875 C 25.675781 -28.0625 26.203125 -29.257812 26.203125 -30.5625 C 26.203125 -31.625 25.988281 -32.460938 25.5625 -33.078125 C 25.144531 -33.691406 24.59375 -34.140625 23.90625 -34.421875 C 23.21875 -34.710938 22.453125 -34.894531 21.609375 -34.96875 C 20.765625 -35.039062 19.925781 -35.078125 19.09375 -35.078125 Z M 24.484375 -37.71875 C 26.160156 -37.71875 27.523438 -37.554688 28.578125 -37.234375 C 29.628906 -36.910156 30.441406 -36.476562 31.015625 -35.9375 C 31.585938 -35.40625 31.96875 -34.785156 32.15625 -34.078125 C 32.351562 -33.367188 32.453125 -32.632812 32.453125 -31.875 C 32.453125 -30.726562 32.210938 -29.695312 31.734375 -28.78125 C 31.253906 -27.863281 30.625 -27.019531 29.84375 -26.25 C 29.0625 -25.488281 28.179688 -24.789062 27.203125 -24.15625 C 26.222656 -23.53125 25.21875 -22.953125 24.1875 -22.421875 C 25.488281 -20.960938 26.65625 -19.457031 27.6875 -17.90625 C 28.71875 -16.363281 29.644531 -14.847656 30.46875 -13.359375 C 31.289062 -11.867188 32 -10.460938 32.59375 -9.140625 C 33.1875 -7.828125 33.691406 -6.65625 34.109375 -5.625 C 34.453125 -4.738281 34.765625 -4 35.046875 -3.40625 C 35.335938 -2.8125 35.625 -2.3125 35.90625 -1.90625 C 36.195312 -1.507812 36.523438 -1.207031 36.890625 -1 C 37.253906 -0.789062 37.703125 -0.628906 38.234375 -0.515625 L 38.234375 0 L 25.90625 0 L 25.90625 -0.515625 C 26.5625 -0.671875 27.078125 -0.898438 27.453125 -1.203125 C 27.835938 -1.503906 28.03125 -2.019531 28.03125 -2.75 C 28.03125 -3.894531 27.753906 -5.203125 27.203125 -6.671875 C 26.648438 -8.148438 25.929688 -9.671875 25.046875 -11.234375 C 24.171875 -12.804688 23.195312 -14.351562 22.125 -15.875 C 21.0625 -17.40625 20.03125 -18.800781 19.03125 -20.0625 L 12.03125 -17.765625 L 12.03125 -6.828125 C 12.03125 -5.984375 12.066406 -5.207031 12.140625 -4.5 C 12.222656 -3.789062 12.390625 -3.160156 12.640625 -2.609375 C 12.890625 -2.054688 13.257812 -1.597656 13.75 -1.234375 C 14.25 -0.867188 14.921875 -0.628906 15.765625 -0.515625 L 15.765625 0 L 2 0 L 2 -0.515625 C 2.800781 -0.671875 3.453125 -0.921875 3.953125 -1.265625 C 4.453125 -1.609375 4.832031 -2.035156 5.09375 -2.546875 C 5.363281 -3.066406 5.535156 -3.660156 5.609375 -4.328125 C 5.691406 -4.992188 5.734375 -5.726562 5.734375 -6.53125 L 5.734375 -30.84375 C 5.734375 -31.601562 5.691406 -32.347656 5.609375 -33.078125 C 5.535156 -33.804688 5.363281 -34.457031 5.09375 -35.03125 C 4.832031 -35.601562 4.460938 -36.078125 3.984375 -36.453125 C 3.503906 -36.835938 2.84375 -37.085938 2 -37.203125 L 2 -37.71875 Z M 24.484375 -37.71875 "/></g></g></g><g fill="#d0a933" fill-opacity="1"><g transform="translate(70.450121, 39.886326)"><g/></g></g><g fill="#d0a933" fill-opacity="1"><g transform="translate(88.795948, 39.886326)"><g/></g></g><g fill="#d0a933" fill-opacity="1"><g transform="translate(107.141774, 39.886326)"><g/></g></g><g clip-path="url(#05a4797cc8)"><g fill="#235aa4" fill-opacity="1"><g transform="translate(125.499056, 39.886326)"><g><path d="M 30.265625 -37.84375 C 30.722656 -37.84375 31.148438 -37.925781 31.546875 -38.09375 C 31.953125 -38.269531 32.269531 -38.566406 32.5 -38.984375 L 35.140625 -28.140625 L 34.6875 -27.96875 C 34.144531 -29.15625 33.441406 -30.21875 32.578125 -31.15625 C 31.722656 -32.09375 30.75 -32.882812 29.65625 -33.53125 C 28.570312 -34.1875 27.390625 -34.675781 26.109375 -35 C 24.828125 -35.320312 23.5 -35.484375 22.125 -35.484375 C 19.875 -35.484375 18.03125 -35.164062 16.59375 -34.53125 C 15.164062 -33.90625 13.953125 -33.039062 12.953125 -31.9375 C 11.503906 -30.332031 10.492188 -28.546875 9.921875 -26.578125 C 9.347656 -24.609375 9.0625 -22.800781 9.0625 -21.15625 C 9.0625 -18.664062 9.46875 -16.273438 10.28125 -13.984375 C 11.101562 -11.691406 12.257812 -9.675781 13.75 -7.9375 C 15.25 -6.195312 17.054688 -4.8125 19.171875 -3.78125 C 21.296875 -2.75 23.675781 -2.234375 26.3125 -2.234375 C 29.175781 -2.234375 31.660156 -3.003906 33.765625 -4.546875 C 35.867188 -6.097656 37.570312 -8.25 38.875 -11 L 38.984375 -11.171875 L 39.5625 -10.953125 L 35.140625 0.578125 C 34.796875 0.421875 34.414062 0.34375 34 0.34375 C 33.570312 0.34375 33.109375 0.359375 32.609375 0.390625 C 32.117188 0.429688 31.609375 0.472656 31.078125 0.515625 C 30.421875 0.585938 29.691406 0.644531 28.890625 0.6875 C 28.085938 0.726562 27.207031 0.75 26.25 0.75 C 21.78125 0.75 18.015625 0.09375 14.953125 -1.21875 C 11.898438 -2.539062 9.425781 -4.242188 7.53125 -6.328125 C 5.644531 -8.410156 4.28125 -10.722656 3.4375 -13.265625 C 2.59375 -15.804688 2.171875 -18.300781 2.171875 -20.75 C 2.171875 -23.039062 2.535156 -25.253906 3.265625 -27.390625 C 3.992188 -29.535156 5.160156 -31.421875 6.765625 -33.046875 C 8.367188 -34.671875 10.429688 -35.976562 12.953125 -36.96875 C 15.472656 -37.96875 18.515625 -38.46875 22.078125 -38.46875 C 23.828125 -38.46875 25.378906 -38.363281 26.734375 -38.15625 C 28.097656 -37.945312 29.273438 -37.84375 30.265625 -37.84375 Z M 30.265625 -37.84375 "/></g></g></g></g><g fill="#235aa4" fill-opacity="1"><g transform="translate(165.630548, 39.886326)"><g><path d="M 15.765625 -37.71875 L 15.765625 -37.203125 C 14.160156 -37.054688 13.132812 -36.4375 12.6875 -35.34375 C 12.25 -34.25 12.03125 -32.882812 12.03125 -31.25 L 12.03125 -8.421875 C 12.03125 -7.242188 12.109375 -6.28125 12.265625 -5.53125 C 12.421875 -4.789062 12.671875 -4.195312 13.015625 -3.75 C 13.359375 -3.3125 13.796875 -3.015625 14.328125 -2.859375 C 14.867188 -2.710938 15.519531 -2.640625 16.28125 -2.640625 C 18.113281 -2.640625 19.851562 -2.90625 21.5 -3.4375 C 23.144531 -3.976562 24.65625 -4.722656 26.03125 -5.671875 C 27.40625 -6.628906 28.644531 -7.785156 29.75 -9.140625 C 30.863281 -10.492188 31.820312 -12.015625 32.625 -13.703125 L 33.140625 -13.421875 L 28.203125 0.796875 C 28.046875 0.648438 27.757812 0.476562 27.34375 0.28125 C 26.925781 0.09375 26.179688 0 25.109375 0 L 2 0 L 2 -0.515625 C 3.300781 -0.785156 4.25 -1.367188 4.84375 -2.265625 C 5.4375 -3.160156 5.734375 -4.546875 5.734375 -6.421875 L 5.734375 -30.84375 C 5.734375 -31.601562 5.691406 -32.347656 5.609375 -33.078125 C 5.535156 -33.804688 5.363281 -34.457031 5.09375 -35.03125 C 4.832031 -35.601562 4.460938 -36.078125 3.984375 -36.453125 C 3.503906 -36.835938 2.84375 -37.085938 2 -37.203125 L 2 -37.71875 Z M 15.765625 -37.71875 "/></g></g></g><g fill="#235aa4" fill-opacity="1"><g transform="translate(197.735749, 39.886326)"><g><path d="M 27.34375 -37.71875 C 28.070312 -37.71875 28.5625 -37.753906 28.8125 -37.828125 C 29.0625 -37.910156 29.335938 -38.101562 29.640625 -38.40625 L 32.21875 -26.890625 L 31.765625 -26.71875 C 31.148438 -28.164062 30.328125 -29.414062 29.296875 -30.46875 C 28.265625 -31.519531 27.109375 -32.390625 25.828125 -33.078125 C 24.546875 -33.765625 23.164062 -34.269531 21.6875 -34.59375 C 20.21875 -34.914062 18.738281 -35.078125 17.25 -35.078125 C 16.375 -35.078125 15.609375 -35.03125 14.953125 -34.9375 C 14.304688 -34.84375 13.765625 -34.640625 13.328125 -34.328125 C 12.890625 -34.023438 12.5625 -33.566406 12.34375 -32.953125 C 12.132812 -32.347656 12.03125 -31.53125 12.03125 -30.5 L 12.03125 -27 L 16.90625 -27 C 18.09375 -27 19.066406 -27.054688 19.828125 -27.171875 C 20.597656 -27.285156 21.203125 -27.472656 21.640625 -27.734375 C 22.078125 -28.003906 22.378906 -28.359375 22.546875 -28.796875 C 22.722656 -29.242188 22.8125 -29.789062 22.8125 -30.4375 L 23.328125 -30.609375 L 25.5625 -17.765625 L 25.109375 -17.59375 C 24.648438 -19.082031 24.113281 -20.273438 23.5 -21.171875 C 22.894531 -22.078125 22.160156 -22.757812 21.296875 -23.21875 C 20.429688 -23.675781 19.445312 -23.972656 18.34375 -24.109375 C 17.238281 -24.242188 15.976562 -24.3125 14.5625 -24.3125 L 12.03125 -24.3125 L 12.03125 -8.25 C 12.03125 -7.21875 12.085938 -6.347656 12.203125 -5.640625 C 12.328125 -4.941406 12.585938 -4.367188 12.984375 -3.921875 C 13.390625 -3.484375 13.984375 -3.160156 14.765625 -2.953125 C 15.546875 -2.742188 16.601562 -2.640625 17.9375 -2.640625 C 22.144531 -2.640625 25.613281 -3.59375 28.34375 -5.5 C 31.082031 -7.414062 33.3125 -10.070312 35.03125 -13.46875 L 35.140625 -13.703125 L 35.71875 -13.53125 L 30.84375 0.75 C 30.769531 0.664062 30.566406 0.519531 30.234375 0.3125 C 29.910156 0.101562 29.3125 0 28.4375 0 L 2 0 L 2 -0.515625 C 3.5 -0.785156 4.492188 -1.378906 4.984375 -2.296875 C 5.484375 -3.210938 5.734375 -4.585938 5.734375 -6.421875 L 5.734375 -30.78125 C 5.734375 -31.582031 5.691406 -32.347656 5.609375 -33.078125 C 5.535156 -33.804688 5.363281 -34.457031 5.09375 -35.03125 C 4.832031 -35.601562 4.453125 -36.078125 3.953125 -36.453125 C 3.453125 -36.835938 2.800781 -37.085938 2 -37.203125 L 2 -37.71875 Z M 27.34375 -37.71875 "/></g></g></g><g fill="#235aa4" fill-opacity="1"><g transform="translate(233.28079, 39.886326)"><g><path d="M 18.40625 -33.421875 L 13.1875 -19.65625 C 15.894531 -19.582031 18.222656 -19.101562 20.171875 -18.21875 C 22.128906 -17.34375 23.660156 -16.390625 24.765625 -15.359375 Z M 26.140625 -37.71875 L 26.140625 -37.203125 C 25.035156 -36.898438 24.484375 -36.210938 24.484375 -35.140625 C 24.484375 -35.023438 24.507812 -34.804688 24.5625 -34.484375 C 24.625 -34.160156 24.75 -33.691406 24.9375 -33.078125 L 34.796875 -4.703125 C 35.179688 -3.585938 35.582031 -2.675781 36 -1.96875 C 36.414062 -1.269531 37.179688 -0.785156 38.296875 -0.515625 L 38.296875 0 L 25.28125 0 L 25.28125 -0.515625 C 26.125 -0.703125 26.800781 -1.109375 27.3125 -1.734375 C 27.832031 -2.367188 28.09375 -3.300781 28.09375 -4.53125 C 28.09375 -5.632812 27.785156 -6.898438 27.171875 -8.328125 C 26.554688 -9.765625 25.609375 -11.125 24.328125 -12.40625 C 23.054688 -13.6875 21.4375 -14.785156 19.46875 -15.703125 C 17.5 -16.617188 15.15625 -17.097656 12.4375 -17.140625 L 9 -7.6875 C 8.539062 -6.382812 8.269531 -5.425781 8.1875 -4.8125 C 8.113281 -4.195312 8.078125 -3.796875 8.078125 -3.609375 C 8.078125 -2.648438 8.398438 -1.910156 9.046875 -1.390625 C 9.703125 -0.878906 10.429688 -0.585938 11.234375 -0.515625 L 11.234375 0 L -0.453125 0 L -0.453125 -0.515625 C 0.00390625 -0.628906 0.441406 -0.757812 0.859375 -0.90625 C 1.273438 -1.0625 1.691406 -1.390625 2.109375 -1.890625 C 2.535156 -2.390625 3 -3.097656 3.5 -4.015625 C 4 -4.929688 4.550781 -6.210938 5.15625 -7.859375 L 14.328125 -32.046875 C 14.554688 -32.691406 14.753906 -33.269531 14.921875 -33.78125 C 15.097656 -34.300781 15.1875 -34.832031 15.1875 -35.375 C 15.1875 -35.90625 14.992188 -36.320312 14.609375 -36.625 C 14.234375 -36.9375 13.835938 -37.128906 13.421875 -37.203125 L 13.421875 -37.71875 Z M 26.140625 -37.71875 "/></g></g></g><g fill="#235aa4" fill-opacity="1"><g transform="translate(271.119055, 39.886326)"><g><path d="M 17.078125 -37.71875 L 17.078125 -37.203125 C 16.273438 -37.128906 15.875 -36.898438 15.875 -36.515625 C 15.875 -36.441406 15.953125 -36.234375 16.109375 -35.890625 C 16.265625 -35.546875 16.757812 -35.03125 17.59375 -34.34375 L 30.734375 -23.390625 L 30.734375 -30.84375 C 30.734375 -31.6875 30.679688 -32.476562 30.578125 -33.21875 C 30.484375 -33.96875 30.300781 -34.617188 30.03125 -35.171875 C 29.769531 -35.722656 29.390625 -36.179688 28.890625 -36.546875 C 28.390625 -36.910156 27.722656 -37.128906 26.890625 -37.203125 L 26.890625 -37.71875 L 38.1875 -37.71875 L 38.1875 -37.203125 C 37.34375 -37.085938 36.671875 -36.847656 36.171875 -36.484375 C 35.671875 -36.117188 35.296875 -35.660156 35.046875 -35.109375 C 34.804688 -34.554688 34.644531 -33.945312 34.5625 -33.28125 C 34.488281 -32.613281 34.453125 -31.914062 34.453125 -31.1875 L 34.453125 -6.875 C 34.453125 -6.039062 34.488281 -5.269531 34.5625 -4.5625 C 34.644531 -3.851562 34.816406 -3.21875 35.078125 -2.65625 C 35.347656 -2.101562 35.734375 -1.632812 36.234375 -1.25 C 36.734375 -0.875 37.382812 -0.628906 38.1875 -0.515625 L 38.1875 0 L 26.890625 0 L 26.890625 -0.515625 C 27.691406 -0.628906 28.347656 -0.847656 28.859375 -1.171875 C 29.378906 -1.492188 29.769531 -1.910156 30.03125 -2.421875 C 30.300781 -2.941406 30.484375 -3.546875 30.578125 -4.234375 C 30.679688 -4.929688 30.734375 -5.71875 30.734375 -6.59375 L 30.734375 -12.734375 C 30.734375 -13.304688 30.703125 -13.789062 30.640625 -14.1875 C 30.585938 -14.59375 30.445312 -14.984375 30.21875 -15.359375 C 29.988281 -15.742188 29.660156 -16.144531 29.234375 -16.5625 C 28.816406 -16.988281 28.265625 -17.488281 27.578125 -18.0625 L 9.453125 -33.140625 L 9.453125 -6.875 C 9.453125 -6.070312 9.488281 -5.296875 9.5625 -4.546875 C 9.644531 -3.804688 9.816406 -3.148438 10.078125 -2.578125 C 10.347656 -2.003906 10.734375 -1.535156 11.234375 -1.171875 C 11.734375 -0.804688 12.382812 -0.585938 13.1875 -0.515625 L 13.1875 0 L 2 0 L 2 -0.515625 C 2.84375 -0.628906 3.515625 -0.867188 4.015625 -1.234375 C 4.515625 -1.597656 4.882812 -2.054688 5.125 -2.609375 C 5.375 -3.160156 5.535156 -3.769531 5.609375 -4.4375 C 5.691406 -5.113281 5.734375 -5.8125 5.734375 -6.53125 L 5.734375 -30.84375 C 5.734375 -31.601562 5.691406 -32.335938 5.609375 -33.046875 C 5.535156 -33.753906 5.363281 -34.394531 5.09375 -34.96875 C 4.832031 -35.539062 4.460938 -36.023438 3.984375 -36.421875 C 3.503906 -36.828125 2.84375 -37.085938 2 -37.203125 L 2 -37.71875 Z M 17.078125 -37.71875 "/></g></g></g></g></g><g transform="matrix(1, 0, 0, 1, 114, 72)"><g clip-path="url(#0e18c5f05d)"><g clip-path="url(#cb024bf48b)"><g fill="#235aa4" fill-opacity="1"><g transform="translate(1.061368, 19.528483)"><g><path d="M 2.03125 -0.5 L 2.03125 -18.09375 C 2.03125 -18.425781 2.1875 -18.59375 2.5 -18.59375 L 14.515625 -18.59375 C 14.847656 -18.59375 15.015625 -18.425781 15.015625 -18.09375 L 15.015625 -15.671875 C 15.015625 -15.328125 14.847656 -15.15625 14.515625 -15.15625 L 5.6875 -15.15625 L 5.6875 -10.25 L 12.4375 -10.25 C 12.75 -10.25 12.90625 -10.082031 12.90625 -9.75 L 12.90625 -7.4375 C 12.90625 -7.101562 12.75 -6.9375 12.4375 -6.9375 L 5.6875 -6.9375 L 5.6875 -0.5 C 5.6875 -0.164062 5.519531 0 5.1875 0 L 2.5 0 C 2.1875 0 2.03125 -0.164062 2.03125 -0.5 Z M 2.03125 -0.5 "/></g></g></g></g><g clip-path="url(#476273155b)"><g fill="#235aa4" fill-opacity="1"><g transform="translate(21.432082, 19.528483)"><g><path d="M 0.375 -0.53125 L 7.4375 -18.125 C 7.59375 -18.4375 7.800781 -18.59375 8.0625 -18.59375 L 10.171875 -18.59375 C 10.472656 -18.59375 10.679688 -18.4375 10.796875 -18.125 L 17.875 -0.53125 C 17.957031 -0.363281 17.957031 -0.234375 17.875 -0.140625 C 17.800781 -0.046875 17.679688 0 17.515625 0 L 14.78125 0 C 14.476562 0 14.269531 -0.148438 14.15625 -0.453125 L 12.953125 -3.453125 L 5.265625 -3.453125 L 4.078125 -0.453125 C 3.960938 -0.148438 3.753906 0 3.453125 0 L 0.703125 0 C 0.335938 0 0.226562 -0.175781 0.375 -0.53125 Z M 9.125 -13.78125 L 6.4375 -6.6875 L 11.75 -6.6875 Z M 9.125 -13.78125 "/></g></g></g></g><g clip-path="url(#0fb4adbd1a)"><g fill="#235aa4" fill-opacity="1"><g transform="translate(44.032693, 19.528483)"><g><path d="M 10.375 -0.828125 L 6.1875 -12.328125 L 4.859375 -0.5 C 4.828125 -0.164062 4.660156 0 4.359375 0 L 1.796875 0 C 1.453125 0 1.296875 -0.164062 1.328125 -0.5 L 3.234375 -18.125 C 3.265625 -18.457031 3.441406 -18.625 3.765625 -18.625 L 7.015625 -18.625 C 7.148438 -18.625 7.242188 -18.582031 7.296875 -18.5 C 7.359375 -18.425781 7.414062 -18.316406 7.46875 -18.171875 L 11.953125 -5.765625 L 16.359375 -18.140625 C 16.484375 -18.460938 16.644531 -18.625 16.84375 -18.625 L 20.171875 -18.625 C 20.492188 -18.625 20.671875 -18.457031 20.703125 -18.125 L 22.578125 -0.5 C 22.628906 -0.164062 22.472656 0 22.109375 0 L 19.546875 0 C 19.265625 0 19.097656 -0.15625 19.046875 -0.46875 L 17.765625 -12.328125 L 13.515625 -0.828125 C 13.441406 -0.640625 13.367188 -0.515625 13.296875 -0.453125 C 13.222656 -0.398438 13.117188 -0.375 12.984375 -0.375 L 10.875 -0.375 C 10.757812 -0.375 10.660156 -0.398438 10.578125 -0.453125 C 10.503906 -0.515625 10.4375 -0.640625 10.375 -0.828125 Z M 10.375 -0.828125 "/></g></g></g></g><g clip-path="url(#a274e6f90f)"><g fill="#235aa4" fill-opacity="1"><g transform="translate(71.89486, 19.528483)"><g><path d="M 2.03125 -0.5 L 2.03125 -18.0625 C 2.03125 -18.414062 2.195312 -18.59375 2.53125 -18.59375 L 5.234375 -18.59375 C 5.554688 -18.59375 5.71875 -18.414062 5.71875 -18.0625 L 5.71875 -0.5 C 5.71875 -0.164062 5.554688 0 5.234375 0 L 2.53125 0 C 2.195312 0 2.03125 -0.164062 2.03125 -0.5 Z M 2.03125 -0.5 "/></g></g></g></g><g clip-path="url(#5ddab2b185)"><g fill="#235aa4" fill-opacity="1"><g transform="translate(84.29808, 19.528483)"><g><path d="M 2.03125 -0.546875 L 2.03125 -18.0625 C 2.03125 -18.21875 2.082031 -18.347656 2.1875 -18.453125 C 2.300781 -18.566406 2.441406 -18.625 2.609375 -18.625 L 5.15625 -18.625 C 5.507812 -18.625 5.695312 -18.4375 5.71875 -18.0625 L 5.71875 -3.40625 L 13.03125 -3.40625 C 13.1875 -3.40625 13.316406 -3.351562 13.421875 -3.25 C 13.523438 -3.15625 13.578125 -3.015625 13.578125 -2.828125 L 13.578125 -0.546875 C 13.578125 -0.203125 13.394531 -0.0195312 13.03125 0 L 2.578125 0 C 2.210938 0 2.03125 -0.179688 2.03125 -0.546875 Z M 2.03125 -0.546875 "/></g></g></g></g><g clip-path="url(#c9f5e16788)"><g fill="#235aa4" fill-opacity="1"><g transform="translate(103.340873, 19.528483)"><g><path d="M 7.125 -0.53125 L 7.125 -7.8125 L 1.125 -18.046875 C 1.039062 -18.234375 1.03125 -18.367188 1.09375 -18.453125 C 1.164062 -18.546875 1.285156 -18.59375 1.453125 -18.59375 L 4.53125 -18.59375 C 4.78125 -18.59375 4.988281 -18.441406 5.15625 -18.140625 L 8.953125 -10.859375 L 12.703125 -18.140625 C 12.867188 -18.441406 13.078125 -18.59375 13.328125 -18.59375 L 16.4375 -18.59375 C 16.601562 -18.59375 16.71875 -18.546875 16.78125 -18.453125 C 16.851562 -18.367188 16.847656 -18.234375 16.765625 -18.046875 L 10.78125 -7.84375 L 10.78125 -0.53125 C 10.78125 -0.175781 10.617188 0 10.296875 0 L 7.59375 0 C 7.28125 0 7.125 -0.175781 7.125 -0.53125 Z M 7.125 -0.53125 "/></g></g></g></g></g></g></svg>