<svg xmlns="http://www.w3.org/2000/svg" version="1.1" xmlns:xlink="http://www.w3.org/1999/xlink" width="62" height="87"><svg xmlns="http://www.w3.org/2000/svg" xmlns:xlink="http://www.w3.org/1999/xlink" width="62" zoomAndPan="magnify" viewBox="0 0 46.5 65.249999" height="87" preserveAspectRatio="xMidYMid meet" version="1.0"><defs><clipPath id="SvgjsClipPath1007"><path d="M 0.015625 0 L 45.988281 0 L 45.988281 63.765625 L 0.015625 63.765625 Z M 0.015625 0 " clip-rule="nonzero"></path></clipPath><clipPath id="SvgjsClipPath1006"><path d="M 41.085938 45.171875 L 44.792969 45.171875 L 44.792969 49.355469 L 41.085938 49.355469 Z M 41.085938 45.171875 " clip-rule="nonzero"></path></clipPath><clipPath id="SvgjsClipPath1005"><path d="M 0.0859375 0.171875 L 3.792969 0.171875 L 3.792969 4.355469 L 0.0859375 4.355469 Z M 0.0859375 0.171875 " clip-rule="nonzero"></path></clipPath><clipPath id="SvgjsClipPath1004"><rect x="0" width="4" y="0" height="5"></rect></clipPath></defs><path fill="#3871c1" d="M 18.105469 18.761719 C 18.105469 18.761719 17.855469 19.074219 17.390625 19.664062 C 17.164062 19.957031 16.878906 20.320312 16.546875 20.75 C 16.382812 20.964844 16.207031 21.195312 16.023438 21.445312 C 15.832031 21.691406 15.636719 21.953125 15.429688 22.234375 C 14.609375 23.351562 13.636719 24.722656 12.613281 26.339844 C 12.550781 26.441406 12.484375 26.542969 12.421875 26.648438 L 12.371094 26.722656 C 12.371094 26.726562 12.355469 26.746094 12.367188 26.734375 L 12.332031 26.792969 C 12.300781 26.847656 12.265625 26.898438 12.234375 26.953125 C 12.105469 27.167969 11.96875 27.386719 11.839844 27.601562 C 11.71875 27.816406 11.597656 28.035156 11.46875 28.257812 C 11.347656 28.476562 11.226562 28.710938 11.105469 28.945312 C 10.621094 29.878906 10.15625 30.878906 9.75 31.941406 C 9.339844 33 8.988281 34.125 8.730469 35.296875 C 8.476562 36.472656 8.316406 37.691406 8.304688 38.933594 C 8.304688 39.085938 8.304688 39.242188 8.304688 39.398438 C 8.308594 39.476562 8.304688 39.554688 8.308594 39.632812 C 8.3125 39.707031 8.316406 39.785156 8.324219 39.863281 C 8.332031 40.019531 8.339844 40.175781 8.347656 40.332031 L 8.355469 40.449219 C 8.351562 40.40625 8.355469 40.457031 8.355469 40.457031 L 8.359375 40.488281 L 8.367188 40.554688 C 8.375 40.640625 8.382812 40.726562 8.390625 40.8125 C 8.414062 40.96875 8.429688 41.09375 8.453125 41.25 C 8.480469 41.398438 8.503906 41.550781 8.535156 41.703125 C 8.59375 42.003906 8.667969 42.304688 8.75 42.605469 C 8.832031 42.902344 8.933594 43.199219 9.042969 43.492188 C 9.15625 43.785156 9.273438 44.074219 9.40625 44.359375 C 9.542969 44.644531 9.6875 44.925781 9.847656 45.203125 C 9.886719 45.273438 9.929688 45.339844 9.972656 45.410156 L 10.035156 45.511719 L 10.0625 45.5625 C 10.089844 45.605469 10.046875 45.535156 10.058594 45.554688 L 10.078125 45.582031 C 10.179688 45.738281 10.28125 45.894531 10.382812 46.050781 C 10.46875 46.171875 10.558594 46.292969 10.648438 46.417969 C 10.6875 46.476562 10.742188 46.539062 10.792969 46.605469 L 10.945312 46.796875 C 11.042969 46.925781 11.15625 47.042969 11.261719 47.171875 C 11.363281 47.296875 11.476562 47.414062 11.589844 47.535156 C 12.042969 48.019531 12.535156 48.46875 13.0625 48.890625 C 13.589844 49.3125 14.152344 49.703125 14.742188 50.054688 C 15.335938 50.40625 15.949219 50.726562 16.589844 51.003906 L 16.832031 51.109375 L 16.941406 51.15625 L 17.078125 51.210938 L 17.316406 51.304688 L 17.558594 51.394531 C 17.886719 51.515625 18.214844 51.625 18.550781 51.722656 C 18.714844 51.769531 18.882812 51.816406 19.050781 51.859375 L 19.304688 51.921875 L 19.367188 51.933594 L 19.402344 51.941406 C 19.457031 51.957031 19.359375 51.933594 19.382812 51.9375 L 19.527344 51.96875 L 20.113281 52.089844 L 20.183594 52.101562 L 20.242188 52.109375 L 20.363281 52.128906 L 20.601562 52.164062 L 20.835938 52.199219 L 21.09375 52.226562 C 21.269531 52.242188 21.441406 52.265625 21.613281 52.277344 L 22.128906 52.300781 L 22.261719 52.308594 L 22.390625 52.3125 L 22.648438 52.3125 C 22.996094 52.324219 23.339844 52.292969 23.683594 52.28125 C 24.027344 52.242188 24.371094 52.222656 24.710938 52.160156 L 24.964844 52.121094 C 25.007812 52.117188 25.050781 52.109375 25.09375 52.101562 L 25.21875 52.078125 L 25.722656 51.972656 C 25.890625 51.933594 26.054688 51.886719 26.21875 51.847656 C 26.300781 51.824219 26.386719 51.804688 26.46875 51.78125 L 26.953125 51.625 C 27.035156 51.597656 27.117188 51.574219 27.195312 51.542969 L 27.671875 51.359375 C 27.753906 51.332031 27.828125 51.296875 27.90625 51.261719 L 28.136719 51.160156 L 28.371094 51.054688 C 28.445312 51.019531 28.519531 50.980469 28.597656 50.941406 C 28.746094 50.863281 28.898438 50.789062 29.046875 50.707031 L 29.480469 50.449219 C 29.628906 50.371094 29.761719 50.269531 29.902344 50.175781 L 30.113281 50.039062 L 30.167969 50.003906 L 30.191406 49.984375 C 30.238281 49.953125 30.160156 50.011719 30.179688 49.996094 L 30.296875 49.90625 L 30.53125 49.730469 L 30.652344 49.640625 L 30.710938 49.597656 L 30.753906 49.558594 C 30.867188 49.460938 30.984375 49.363281 31.101562 49.269531 L 31.460938 48.933594 C 31.523438 48.878906 31.578125 48.820312 31.636719 48.761719 L 31.808594 48.585938 C 32.261719 48.113281 32.664062 47.601562 33.011719 47.0625 C 33.367188 46.519531 33.667969 45.949219 33.902344 45.351562 C 34.144531 44.753906 34.332031 44.132812 34.46875 43.5 C 34.5 43.339844 34.535156 43.183594 34.5625 43.023438 C 34.585938 42.863281 34.609375 42.703125 34.636719 42.542969 L 34.644531 42.480469 C 34.644531 42.488281 34.652344 42.425781 34.644531 42.488281 L 34.664062 42.3125 L 34.691406 42.035156 L 34.703125 41.824219 L 34.710938 41.722656 L 34.714844 41.605469 C 34.765625 40.355469 34.570312 39.09375 34.210938 37.855469 C 34.03125 37.238281 33.816406 36.625 33.570312 36.015625 C 33.328125 35.410156 33.054688 34.8125 32.773438 34.222656 C 32.203125 33.042969 31.578125 31.894531 30.960938 30.773438 C 30.347656 29.652344 29.738281 28.558594 29.179688 27.484375 C 28.902344 26.945312 28.628906 26.417969 28.375 25.890625 C 28.121094 25.367188 27.878906 24.847656 27.65625 24.335938 C 27.4375 23.824219 27.230469 23.320312 27.039062 22.824219 C 26.945312 22.578125 26.855469 22.332031 26.765625 22.089844 C 26.683594 21.847656 26.601562 21.609375 26.527344 21.367188 C 26.492188 21.25 26.453125 21.132812 26.417969 21.015625 L 26.390625 20.925781 L 26.382812 20.90625 C 26.382812 20.898438 26.371094 20.875 26.375 20.875 L 26.363281 20.832031 C 26.34375 20.773438 26.328125 20.71875 26.3125 20.660156 C 26.28125 20.546875 26.25 20.4375 26.21875 20.324219 C 26.1875 20.210938 26.15625 20.09375 26.128906 19.980469 C 26.003906 19.523438 25.914062 19.085938 25.828125 18.660156 C 25.667969 17.8125 25.566406 17.03125 25.515625 16.320312 C 25.507812 16.140625 25.496094 15.96875 25.488281 15.800781 C 25.476562 15.632812 25.476562 15.46875 25.472656 15.3125 C 25.464844 15.15625 25.46875 15 25.46875 14.855469 C 25.46875 14.78125 25.46875 14.707031 25.46875 14.636719 C 25.472656 14.566406 25.476562 14.496094 25.476562 14.425781 C 25.488281 13.878906 25.535156 13.414062 25.574219 13.039062 C 25.617188 12.664062 25.65625 12.382812 25.691406 12.191406 C 25.722656 12 25.738281 11.902344 25.738281 11.902344 C 25.738281 11.902344 25.746094 12 25.757812 12.195312 C 25.765625 12.386719 25.789062 12.671875 25.820312 13.042969 C 25.84375 13.226562 25.859375 13.433594 25.890625 13.660156 C 25.90625 13.773438 25.917969 13.890625 25.9375 14.011719 C 25.953125 14.136719 25.972656 14.261719 25.996094 14.394531 C 26.082031 14.921875 26.195312 15.523438 26.363281 16.1875 C 26.53125 16.847656 26.742188 17.570312 27.023438 18.339844 C 27.097656 18.53125 27.164062 18.726562 27.246094 18.921875 C 27.324219 19.121094 27.402344 19.324219 27.488281 19.519531 C 27.53125 19.621094 27.574219 19.722656 27.617188 19.824219 C 27.664062 19.929688 27.714844 20.035156 27.761719 20.140625 C 27.785156 20.195312 27.808594 20.25 27.832031 20.300781 L 27.851562 20.34375 C 27.859375 20.355469 27.855469 20.347656 27.859375 20.355469 L 27.867188 20.375 L 27.90625 20.453125 C 27.957031 20.558594 28.007812 20.660156 28.054688 20.769531 C 28.46875 21.617188 28.945312 22.5 29.492188 23.40625 C 30.039062 24.316406 30.644531 25.261719 31.304688 26.238281 C 31.960938 27.214844 32.671875 28.226562 33.398438 29.296875 C 34.128906 30.367188 34.882812 31.496094 35.601562 32.726562 C 35.964844 33.339844 36.3125 33.980469 36.644531 34.652344 C 36.980469 35.320312 37.285156 36.027344 37.554688 36.769531 C 37.691406 37.136719 37.8125 37.519531 37.929688 37.90625 C 37.980469 38.105469 38.039062 38.300781 38.082031 38.5 L 38.15625 38.800781 L 38.21875 39.105469 C 38.386719 39.917969 38.484375 40.765625 38.496094 41.628906 L 38.5 41.792969 L 38.496094 41.964844 L 38.488281 42.316406 L 38.476562 42.597656 L 38.46875 42.738281 L 38.46875 42.773438 L 38.453125 42.929688 C 38.433594 43.140625 38.410156 43.351562 38.390625 43.566406 C 38.363281 43.777344 38.328125 43.992188 38.296875 44.203125 C 38.152344 45.054688 37.9375 45.910156 37.636719 46.75 C 37.335938 47.585938 36.949219 48.402344 36.480469 49.179688 C 36.011719 49.957031 35.464844 50.691406 34.855469 51.367188 L 34.621094 51.621094 C 34.542969 51.703125 34.46875 51.789062 34.382812 51.867188 C 34.21875 52.027344 34.058594 52.183594 33.890625 52.34375 C 33.707031 52.5 33.523438 52.660156 33.335938 52.820312 L 33.269531 52.878906 L 33.210938 52.925781 L 33.09375 53.015625 L 32.863281 53.199219 L 32.746094 53.289062 C 32.746094 53.289062 32.644531 53.363281 32.671875 53.34375 L 32.636719 53.371094 L 32.566406 53.417969 L 32.285156 53.613281 C 32.097656 53.742188 31.914062 53.878906 31.71875 53.992188 L 31.132812 54.347656 C 30.933594 54.460938 30.730469 54.566406 30.53125 54.671875 C 30.429688 54.726562 30.328125 54.78125 30.226562 54.832031 L 29.914062 54.976562 L 29.601562 55.117188 C 29.5 55.164062 29.398438 55.214844 29.289062 55.253906 L 28.652344 55.503906 C 28.542969 55.546875 28.4375 55.582031 28.328125 55.617188 L 28 55.722656 L 27.675781 55.828125 C 27.566406 55.859375 27.457031 55.886719 27.34375 55.917969 C 27.125 55.976562 26.90625 56.039062 26.683594 56.089844 C 26.238281 56.183594 25.792969 56.285156 25.34375 56.339844 C 24.890625 56.417969 24.4375 56.449219 23.988281 56.492188 C 23.535156 56.511719 23.082031 56.542969 22.628906 56.53125 L 22.289062 56.527344 L 22.121094 56.523438 L 21.953125 56.515625 L 21.277344 56.472656 C 21.050781 56.453125 20.828125 56.421875 20.605469 56.398438 L 20.269531 56.359375 L 19.566406 56.242188 L 19.304688 56.199219 L 19.230469 56.183594 L 18.648438 56.054688 L 18.503906 56.023438 C 18.503906 56.023438 18.378906 55.996094 18.410156 56 L 18.371094 55.992188 L 18.289062 55.96875 C 18.183594 55.941406 18.074219 55.914062 17.96875 55.882812 C 17.753906 55.824219 17.539062 55.761719 17.328125 55.695312 C 16.902344 55.5625 16.488281 55.417969 16.074219 55.257812 L 15.769531 55.132812 C 15.671875 55.09375 15.554688 55.046875 15.457031 55.003906 L 15.324219 54.945312 L 15.164062 54.871094 L 14.867188 54.734375 C 13.289062 53.988281 11.808594 53.050781 10.503906 51.921875 C 9.851562 51.355469 9.242188 50.742188 8.6875 50.09375 C 8.546875 49.933594 8.40625 49.769531 8.277344 49.601562 C 8.148438 49.429688 8.011719 49.265625 7.890625 49.089844 L 7.707031 48.828125 C 7.644531 48.742188 7.585938 48.660156 7.523438 48.5625 C 7.402344 48.375 7.273438 48.179688 7.160156 48 C 7.066406 47.835938 6.976562 47.675781 6.882812 47.515625 L 6.863281 47.484375 C 6.863281 47.484375 6.8125 47.394531 6.824219 47.414062 L 6.789062 47.347656 L 6.714844 47.207031 C 6.664062 47.113281 6.617188 47.019531 6.570312 46.925781 C 6.378906 46.550781 6.210938 46.167969 6.054688 45.78125 C 5.902344 45.394531 5.765625 45.003906 5.644531 44.609375 C 5.53125 44.214844 5.421875 43.816406 5.34375 43.417969 C 5.257812 43.023438 5.191406 42.625 5.140625 42.226562 C 5.113281 42.027344 5.097656 41.828125 5.082031 41.628906 C 5.0625 41.433594 5.050781 41.210938 5.042969 41.015625 C 5.039062 40.929688 5.039062 40.839844 5.035156 40.753906 L 5.03125 40.597656 L 5.035156 40.453125 C 5.039062 40.261719 5.039062 40.070312 5.042969 39.878906 C 5.046875 39.785156 5.046875 39.691406 5.050781 39.597656 C 5.050781 39.503906 5.0625 39.410156 5.070312 39.3125 C 5.085938 39.128906 5.097656 38.941406 5.113281 38.753906 C 5.25 37.269531 5.566406 35.863281 5.988281 34.558594 C 6.40625 33.253906 6.933594 32.050781 7.507812 30.941406 C 8.082031 29.832031 8.707031 28.816406 9.351562 27.890625 C 9.515625 27.664062 9.667969 27.4375 9.835938 27.214844 C 10 26.992188 10.164062 26.773438 10.328125 26.558594 C 10.488281 26.351562 10.648438 26.160156 10.808594 25.960938 C 10.847656 25.914062 10.886719 25.863281 10.925781 25.816406 L 10.992188 25.734375 L 11.054688 25.664062 C 11.132812 25.566406 11.214844 25.472656 11.292969 25.378906 C 11.9375 24.628906 12.550781 23.945312 13.140625 23.332031 C 13.730469 22.714844 14.28125 22.164062 14.792969 21.675781 C 15.046875 21.433594 15.289062 21.207031 15.515625 20.992188 C 15.746094 20.78125 15.964844 20.585938 16.167969 20.402344 C 16.375 20.222656 16.5625 20.054688 16.738281 19.902344 C 16.914062 19.753906 17.070312 19.617188 17.214844 19.492188 C 17.5 19.25 17.722656 19.066406 17.875 18.945312 C 18.027344 18.824219 18.105469 18.761719 18.105469 18.761719 " fill-opacity="1" fill-rule="nonzero"></path><g clip-path="url(#325787339f)"><path fill="#00adef" d="M 0.09375 41.316406 C 0.09375 41.316406 0.113281 41.421875 0.15625 41.628906 C 0.191406 41.835938 0.261719 42.140625 0.347656 42.53125 C 0.371094 42.628906 0.398438 42.730469 0.425781 42.839844 C 0.453125 42.949219 0.480469 43.0625 0.515625 43.183594 C 0.546875 43.300781 0.582031 43.425781 0.617188 43.554688 C 0.65625 43.683594 0.699219 43.816406 0.738281 43.957031 C 0.78125 44.09375 0.828125 44.234375 0.878906 44.382812 C 0.929688 44.527344 0.980469 44.679688 1.039062 44.835938 C 1.148438 45.144531 1.277344 45.46875 1.421875 45.808594 C 1.710938 46.484375 2.070312 47.214844 2.511719 47.96875 C 2.617188 48.160156 2.738281 48.347656 2.855469 48.542969 C 2.980469 48.734375 3.101562 48.929688 3.234375 49.121094 C 3.304688 49.21875 3.371094 49.316406 3.4375 49.414062 C 3.507812 49.507812 3.578125 49.601562 3.652344 49.699219 C 3.726562 49.800781 3.800781 49.90625 3.878906 50.007812 C 3.917969 50.0625 3.957031 50.113281 3.996094 50.167969 C 4.035156 50.214844 4.070312 50.261719 4.109375 50.308594 C 4.265625 50.496094 4.417969 50.6875 4.582031 50.878906 C 4.753906 51.074219 4.925781 51.269531 5.101562 51.464844 C 5.285156 51.65625 5.472656 51.851562 5.660156 52.046875 C 5.851562 52.234375 6.054688 52.425781 6.253906 52.617188 C 7.070312 53.375 7.980469 54.105469 8.984375 54.785156 C 9.992188 55.464844 11.089844 56.089844 12.269531 56.644531 C 12.566406 56.78125 12.859375 56.921875 13.167969 57.046875 C 13.320312 57.113281 13.472656 57.175781 13.625 57.242188 C 13.78125 57.304688 13.9375 57.363281 14.09375 57.421875 C 14.25 57.480469 14.410156 57.542969 14.5625 57.597656 C 14.746094 57.664062 14.878906 57.710938 15.042969 57.765625 C 15.363281 57.875 15.6875 57.976562 16.015625 58.074219 C 16.671875 58.261719 17.34375 58.429688 18.027344 58.566406 L 18.15625 58.59375 L 18.253906 58.609375 C 18.15625 58.589844 18.246094 58.609375 18.234375 58.605469 C 18.328125 58.621094 18.421875 58.636719 18.515625 58.652344 C 18.707031 58.683594 18.898438 58.714844 19.085938 58.746094 C 19.183594 58.765625 19.277344 58.78125 19.375 58.796875 L 19.625 58.824219 C 19.789062 58.84375 19.957031 58.863281 20.121094 58.878906 L 20.371094 58.910156 C 20.457031 58.917969 20.546875 58.921875 20.636719 58.925781 C 20.8125 58.9375 20.988281 58.949219 21.167969 58.960938 L 21.433594 58.980469 C 21.523438 58.988281 21.613281 58.984375 21.703125 58.988281 C 21.878906 58.992188 22.058594 58.992188 22.238281 58.996094 C 22.957031 59.003906 23.675781 58.96875 24.398438 58.90625 C 25.84375 58.769531 27.285156 58.488281 28.6875 58.042969 C 29.035156 57.925781 29.378906 57.800781 29.726562 57.679688 C 29.898438 57.609375 30.066406 57.539062 30.238281 57.46875 L 30.492188 57.363281 C 30.578125 57.328125 30.664062 57.296875 30.746094 57.253906 C 30.910156 57.171875 31.078125 57.09375 31.246094 57.011719 C 31.410156 56.933594 31.582031 56.863281 31.738281 56.765625 C 31.902344 56.679688 32.0625 56.589844 32.226562 56.5 L 32.46875 56.367188 C 32.546875 56.320312 32.625 56.269531 32.703125 56.222656 C 32.859375 56.125 33.015625 56.023438 33.171875 55.925781 C 33.25 55.875 33.332031 55.832031 33.40625 55.777344 L 33.632812 55.617188 C 33.785156 55.511719 33.933594 55.40625 34.085938 55.296875 L 34.199219 55.21875 C 34.257812 55.175781 34.152344 55.253906 34.175781 55.238281 L 34.207031 55.210938 L 34.269531 55.164062 L 34.523438 54.964844 L 34.773438 54.765625 C 34.855469 54.699219 34.953125 54.628906 35.003906 54.574219 L 35.386719 54.238281 C 35.511719 54.136719 35.644531 54 35.777344 53.875 L 35.972656 53.683594 C 36.039062 53.617188 36.109375 53.558594 36.167969 53.488281 C 37.179688 52.433594 38.0625 51.265625 38.726562 49.972656 C 39.421875 48.695312 39.886719 47.300781 40.207031 45.863281 C 40.246094 45.683594 40.273438 45.5 40.308594 45.316406 C 40.339844 45.136719 40.378906 44.957031 40.394531 44.769531 L 40.46875 44.21875 L 40.480469 44.148438 L 40.484375 44.117188 C 40.488281 44.09375 40.476562 44.1875 40.484375 44.128906 L 40.496094 43.96875 L 40.527344 43.652344 L 40.53125 43.570312 L 40.535156 43.53125 C 40.539062 43.515625 40.539062 43.503906 40.539062 43.496094 L 40.542969 43.375 L 40.554688 43.132812 C 40.558594 43.089844 40.5625 43.054688 40.5625 43.011719 L 40.566406 42.875 L 40.566406 42.605469 C 40.570312 42.25 40.554688 41.890625 40.535156 41.53125 C 40.488281 40.8125 40.386719 40.089844 40.242188 39.375 C 40.097656 38.652344 39.910156 37.933594 39.683594 37.222656 C 39.238281 35.792969 38.644531 34.382812 37.992188 32.992188 C 37.660156 32.300781 37.316406 31.613281 36.964844 30.929688 C 36.785156 30.589844 36.605469 30.25 36.421875 29.910156 C 36.242188 29.570312 36.0625 29.234375 35.875 28.898438 C 35.125 27.542969 34.394531 26.214844 33.679688 24.925781 C 32.238281 22.3125 30.921875 19.753906 29.894531 17.292969 C 29.382812 16.0625 28.9375 14.859375 28.574219 13.695312 C 28.527344 13.550781 28.480469 13.40625 28.4375 13.261719 C 28.417969 13.191406 28.394531 13.117188 28.371094 13.046875 C 28.375 13.050781 28.359375 13.011719 28.359375 13.007812 L 28.351562 12.980469 L 28.335938 12.929688 L 28.308594 12.824219 C 28.269531 12.683594 28.230469 12.546875 28.191406 12.410156 C 28.175781 12.34375 28.15625 12.273438 28.136719 12.207031 C 28.117188 12.136719 28.101562 12.0625 28.082031 11.992188 C 28.046875 11.851562 28.011719 11.710938 27.976562 11.570312 C 27.9375 11.429688 27.902344 11.289062 27.875 11.152344 C 27.8125 10.878906 27.75 10.613281 27.699219 10.34375 C 27.257812 8.214844 27.117188 6.324219 27.113281 4.785156 C 27.117188 4.011719 27.140625 3.324219 27.195312 2.730469 C 27.210938 2.582031 27.21875 2.441406 27.230469 2.304688 C 27.246094 2.167969 27.261719 2.035156 27.277344 1.910156 C 27.289062 1.785156 27.304688 1.667969 27.320312 1.554688 C 27.335938 1.441406 27.351562 1.332031 27.367188 1.230469 C 27.398438 1.03125 27.417969 0.851562 27.449219 0.699219 C 27.476562 0.546875 27.5 0.417969 27.519531 0.3125 C 27.558594 0.105469 27.578125 0 27.578125 0 C 27.578125 0 27.589844 0.109375 27.605469 0.316406 C 27.613281 0.421875 27.621094 0.550781 27.632812 0.707031 C 27.648438 0.859375 27.667969 1.039062 27.6875 1.238281 C 27.695312 1.339844 27.707031 1.445312 27.714844 1.558594 C 27.730469 1.671875 27.746094 1.789062 27.761719 1.910156 C 27.773438 2.03125 27.789062 2.160156 27.804688 2.296875 C 27.824219 2.429688 27.84375 2.566406 27.867188 2.710938 C 27.886719 2.855469 27.90625 3.003906 27.933594 3.160156 C 27.960938 3.3125 27.988281 3.472656 28.015625 3.632812 C 28.03125 3.714844 28.042969 3.800781 28.058594 3.882812 C 28.074219 3.96875 28.089844 4.050781 28.109375 4.140625 C 28.140625 4.3125 28.175781 4.488281 28.210938 4.671875 C 28.527344 6.125 28.996094 7.855469 29.742188 9.757812 C 29.929688 10.230469 30.128906 10.71875 30.34375 11.203125 C 30.367188 11.261719 30.394531 11.324219 30.421875 11.386719 C 30.453125 11.449219 30.480469 11.511719 30.511719 11.578125 C 30.570312 11.707031 30.628906 11.835938 30.6875 11.96875 L 30.734375 12.066406 L 30.753906 12.117188 L 30.765625 12.140625 C 30.769531 12.152344 30.765625 12.128906 30.773438 12.152344 C 30.804688 12.214844 30.835938 12.277344 30.867188 12.339844 C 30.925781 12.46875 30.988281 12.59375 31.050781 12.722656 C 31.554688 13.75 32.125 14.808594 32.757812 15.894531 C 34.023438 18.066406 35.550781 20.347656 37.21875 22.78125 C 37.636719 23.390625 38.058594 24.011719 38.488281 24.640625 C 38.917969 25.273438 39.351562 25.921875 39.78125 26.585938 C 40 26.914062 40.21875 27.25 40.433594 27.589844 C 40.648438 27.929688 40.863281 28.273438 41.078125 28.625 C 41.507812 29.320312 41.933594 30.039062 42.34375 30.785156 C 43.164062 32.269531 43.933594 33.855469 44.566406 35.570312 C 44.878906 36.429688 45.15625 37.320312 45.378906 38.242188 C 45.601562 39.160156 45.765625 40.113281 45.863281 41.082031 L 45.894531 41.445312 C 45.90625 41.566406 45.917969 41.691406 45.921875 41.8125 L 45.941406 42.179688 C 45.945312 42.300781 45.953125 42.425781 45.953125 42.546875 L 45.957031 42.917969 L 45.957031 43.101562 C 45.957031 43.164062 45.953125 43.234375 45.953125 43.300781 L 45.941406 43.695312 L 45.933594 43.894531 C 45.933594 43.910156 45.933594 43.925781 45.933594 43.9375 L 45.929688 43.976562 L 45.925781 44.058594 L 45.902344 44.375 L 45.894531 44.539062 C 45.898438 44.503906 45.886719 44.625 45.886719 44.632812 L 45.882812 44.675781 L 45.871094 44.765625 C 45.84375 45.007812 45.816406 45.246094 45.789062 45.488281 C 45.769531 45.726562 45.722656 45.96875 45.683594 46.207031 C 45.644531 46.449219 45.609375 46.691406 45.5625 46.929688 L 45.40625 47.648438 C 45.378906 47.769531 45.355469 47.886719 45.320312 48.007812 L 45.226562 48.363281 C 45.160156 48.601562 45.097656 48.839844 45.023438 49.074219 L 44.789062 49.777344 C 44.746094 49.894531 44.714844 50.015625 44.667969 50.128906 L 44.53125 50.476562 L 44.390625 50.824219 C 44.34375 50.9375 44.304688 51.054688 44.25 51.167969 C 44.039062 51.617188 43.84375 52.078125 43.597656 52.511719 L 43.421875 52.84375 L 43.332031 53.007812 C 43.304688 53.0625 43.269531 53.113281 43.238281 53.167969 L 42.851562 53.808594 L 42.753906 53.96875 L 42.4375 54.433594 L 42.226562 54.742188 C 42.191406 54.792969 42.15625 54.84375 42.117188 54.894531 L 41.550781 55.636719 C 41.476562 55.734375 41.394531 55.828125 41.3125 55.921875 L 41.070312 56.203125 C 40.753906 56.585938 40.398438 56.933594 40.058594 57.292969 C 39.972656 57.382812 39.878906 57.464844 39.792969 57.550781 L 39.523438 57.804688 C 39.339844 57.972656 39.167969 58.140625 38.960938 58.308594 C 38.761719 58.472656 38.5625 58.640625 38.363281 58.808594 C 38.257812 58.898438 38.179688 58.953125 38.089844 59.019531 L 37.832031 59.210938 L 37.511719 59.453125 L 37.480469 59.476562 C 37.484375 59.472656 37.355469 59.570312 37.390625 59.542969 L 37.238281 59.644531 C 37.039062 59.777344 36.835938 59.914062 36.636719 60.046875 L 36.335938 60.25 C 36.234375 60.316406 36.128906 60.375 36.023438 60.4375 C 35.816406 60.558594 35.605469 60.679688 35.398438 60.800781 C 35.292969 60.859375 35.191406 60.921875 35.085938 60.980469 L 34.761719 61.144531 C 34.550781 61.253906 34.335938 61.359375 34.121094 61.46875 C 33.910156 61.582031 33.6875 61.671875 33.46875 61.765625 C 33.25 61.863281 33.03125 61.957031 32.8125 62.050781 C 32.703125 62.101562 32.589844 62.136719 32.480469 62.179688 L 32.144531 62.300781 C 31.921875 62.382812 31.699219 62.464844 31.480469 62.542969 C 31.027344 62.683594 30.578125 62.820312 30.128906 62.949219 C 28.316406 63.429688 26.484375 63.6875 24.683594 63.738281 C 23.785156 63.769531 22.894531 63.742188 22.015625 63.671875 C 21.796875 63.652344 21.578125 63.632812 21.363281 63.613281 C 21.253906 63.601562 21.144531 63.597656 21.035156 63.582031 C 20.929688 63.566406 20.820312 63.550781 20.714844 63.535156 C 20.5 63.503906 20.285156 63.472656 20.070312 63.441406 C 19.964844 63.425781 19.859375 63.414062 19.75 63.394531 C 19.640625 63.371094 19.53125 63.351562 19.417969 63.328125 C 19.199219 63.285156 18.980469 63.242188 18.761719 63.199219 C 18.65625 63.175781 18.546875 63.15625 18.4375 63.132812 C 18.34375 63.109375 18.25 63.085938 18.15625 63.0625 C 17.972656 63.011719 17.785156 62.964844 17.597656 62.917969 C 17.503906 62.890625 17.414062 62.867188 17.320312 62.84375 C 17.285156 62.835938 17.351562 62.851562 17.230469 62.824219 L 17.191406 62.8125 L 17.117188 62.789062 L 16.96875 62.746094 C 16.167969 62.511719 15.394531 62.246094 14.648438 61.945312 C 14.273438 61.792969 13.90625 61.636719 13.542969 61.476562 C 13.367188 61.394531 13.164062 61.300781 13.011719 61.226562 C 12.828125 61.136719 12.660156 61.046875 12.488281 60.960938 C 12.3125 60.871094 12.140625 60.785156 11.972656 60.695312 C 11.804688 60.601562 11.636719 60.511719 11.46875 60.417969 C 11.132812 60.238281 10.8125 60.035156 10.492188 59.839844 C 10.410156 59.789062 10.332031 59.742188 10.253906 59.695312 C 10.175781 59.644531 10.097656 59.589844 10.019531 59.539062 C 9.863281 59.4375 9.710938 59.335938 9.558594 59.234375 C 9.402344 59.136719 9.253906 59.023438 9.105469 58.917969 C 8.960938 58.8125 8.8125 58.707031 8.664062 58.601562 C 8.378906 58.382812 8.097656 58.160156 7.820312 57.941406 C 7.546875 57.714844 7.28125 57.488281 7.019531 57.261719 C 5.984375 56.34375 5.074219 55.375 4.292969 54.394531 C 4.101562 54.144531 3.914062 53.902344 3.730469 53.65625 C 3.558594 53.40625 3.386719 53.160156 3.214844 52.917969 C 3.058594 52.667969 2.902344 52.421875 2.75 52.179688 C 2.710938 52.117188 2.671875 52.054688 2.636719 51.992188 C 2.601562 51.929688 2.566406 51.863281 2.53125 51.800781 C 2.457031 51.675781 2.386719 51.550781 2.316406 51.429688 C 2.28125 51.367188 2.25 51.304688 2.214844 51.242188 C 2.183594 51.1875 2.15625 51.128906 2.125 51.070312 C 2.066406 50.953125 2.011719 50.839844 1.953125 50.726562 C 1.894531 50.601562 1.832031 50.484375 1.773438 50.363281 C 1.71875 50.242188 1.664062 50.125 1.613281 50.007812 C 1.558594 49.890625 1.507812 49.773438 1.460938 49.65625 C 1.410156 49.539062 1.359375 49.425781 1.316406 49.308594 C 1.226562 49.078125 1.136719 48.851562 1.058594 48.628906 C 0.742188 47.730469 0.519531 46.890625 0.371094 46.128906 C 0.296875 45.746094 0.234375 45.382812 0.1875 45.039062 C 0.160156 44.871094 0.144531 44.703125 0.128906 44.542969 C 0.109375 44.382812 0.09375 44.230469 0.0859375 44.078125 C 0.03125 43.484375 0.03125 42.972656 0.03125 42.566406 C 0.0390625 42.152344 0.0546875 41.84375 0.0703125 41.632812 C 0.0859375 41.421875 0.09375 41.316406 0.09375 41.316406 " fill-opacity="1" fill-rule="nonzero"></path></g><path fill="#3871c1" d="M 17.78125 24.347656 C 17.78125 24.347656 4.777344 39.296875 17.78125 49.121094 C 17.78125 49.121094 11.117188 38.550781 17.78125 24.347656 " fill-opacity="1" fill-rule="nonzero"></path><g clip-path="url(#1c6f6a0a8d)"><g transform="matrix(1, 0, 0, 1, 41, 45)"><g clip-path="url(#e8cd6c7afc)"><g clip-path="url(#5ecc73554e)"><path fill="#00adef" d="M 0.0859375 0.171875 L 3.792969 0.171875 L 3.792969 4.359375 L 0.0859375 4.359375 Z M 0.0859375 0.171875 " fill-opacity="1" fill-rule="nonzero"></path></g></g></g></g></svg><style>@media (prefers-color-scheme: light) { :root { filter: none; } }
@media (prefers-color-scheme: dark) { :root { filter: none; } }
</style></svg>